<svg xmlns="http://www.w3.org/2000/svg" width="1064" height="357" fill="none"><path fill="#fff" fill-rule="evenodd" d="M193.434 31.813c-13.96-24.429-39.362-35.681-66.407-30.626-25.601 4.786-49.913 23.388-69.12 51.834-20.665 30.606-28.198 76.14-30.808 110.594-1.354 17.877-1.474 34.197-.985 46.304.134 3.337.32 6.469.553 9.306a3.032 3.032 0 0 1-.754 2.269L5.835 244.005c-8.455 9.48-7.624 24.019 1.856 32.474 9.48 8.455 24.019 7.624 32.474-1.856l9.313-10.441c1.337-1.499 3.741-1.286 4.87.375 15.799 23.227 42.287 38.46 72.299 38.46 48.406 0 87.646-39.627 87.646-88.51 0-31.413-16.204-59.003-40.632-74.712-1.488-.957-1.907-2.967-.884-4.409 5.979-8.431 11.258-16.827 15.589-25.107 12.344-23.6 20.001-52.333 5.068-78.466Zm-49.961 142.719c-1.134-.499-2.449-.174-3.282.744a713.674 713.674 0 0 1-7.8 8.452 4428.459 4428.459 0 0 0-3.687 3.941c-12.099 12.94-25.466 27.237-40.589 40.396-.937.815-1.294 2.125-.821 3.274 6.505 15.827 21.896 26.678 39.353 26.678 23.138 0 42.646-19.063 42.646-43.51 0-18.174-10.781-33.372-25.82-39.975Zm-47.457-19.259c-6.232 6.656-12.32 13.158-18.43 19.388-1.91 1.946-5.156.507-4.987-2.213.11-1.764.232-3.551.369-5.358 2.538-33.507 9.62-68.417 23.063-88.328 14.901-22.07 29.831-30.56 39.449-32.358 8.174-1.528 13.965 1.144 18.015 8.232 3.076 5.383 4.066 15.288-5.89 34.323-9.658 18.465-26.866 39.936-48.776 63.311-.94 1.002-1.875 2.001-2.807 2.997l-.006.006Z" clip-rule="evenodd"/><path fill="#fff" d="M389.464 149.477c1.36 0 2.176 1.088 2.176 2.448v138.992c0 1.36-.816 2.448-2.176 2.448h-40.256c-1.088 0-2.176-1.088-2.176-2.448v-1.904c0-1.088-1.088-1.632-1.904-1.088-11.424 6.528-24.48 9.792-37.808 9.792-42.16 0-76.16-33.728-76.16-75.072 0-41.616 34-75.344 76.16-75.344 13.328 0 26.384 3.264 37.808 9.792.816.544 1.904 0 1.904-.816v-4.352c0-1.36 1.088-2.448 2.176-2.448h40.256ZM314.12 257.189c19.312 0 32.912-15.504 32.912-34.544s-13.6-34.544-32.912-34.544c-19.04 0-34.816 15.504-34.816 34.544s15.776 34.544 34.816 34.544Zm227.923 1.632c1.088.816 1.36 2.176.816 3.264-1.36 1.904-2.991 4.352-3.807 5.44a44.309 44.309 0 0 1-4.625 5.44v.272l-2.448 2.448s-.272 0-.272.272c-.816.544-1.36 1.36-2.176 1.904l-1.088 1.088-.815.816c-11.152 9.248-24.753 15.232-39.169 17.408h-1.632c-.544.272-1.088.272-1.632.272-1.088 0-1.904.272-2.992.272h-4.352c-42.16 0-76.16-33.728-76.16-75.072 0-41.616 34-75.344 76.16-75.344h4.352c1.088.272 1.904.272 2.992.272.544 0 1.088.272 1.632.272h1.632c14.416 2.176 28.017 8.16 39.169 17.408l.815.816c.272.544.816.816 1.088 1.088.816.816 1.36 1.36 2.176 1.904 0 .272.272.272.272.544a8.278 8.278 0 0 1 2.176 2.176c.272 0 .272.272.272.272 1.633 1.904 3.265 3.536 4.625 5.44 1.36 1.904 2.719 3.808 4.079 5.984.544.816.272 1.904-.544 2.448l-20.399 11.696-11.969 6.8c-.816.544-2.176.272-2.992-.544-6.528-10.336-16.048-15.776-26.928-15.776-10.88 0-20.4 4.624-26.928 12.24-5.44 5.984-8.704 13.6-8.704 22.304 0 8.432 3.264 16.32 8.704 22.032 6.528 7.616 16.048 12.512 26.928 12.512 10.88 0 20.4-5.712 26.928-15.776.816-1.088 2.176-1.36 2.992-.816l31.824 18.224Zm93.199-36.176 40.528 67.184c.816 1.632-.272 3.536-1.904 3.536h-46.784c-.816 0-1.632-.544-1.904-1.088l-23.12-43.248c-1.088-1.904-4.352-1.088-4.352 1.088v41.072c0 1.088-1.088 2.176-2.176 2.176h-40.256c-1.36 0-2.176-1.088-2.176-2.176V106.501c0-1.088.816-2.176 2.176-2.176h40.256c1.088 0 2.176 1.088 2.176 2.176v86.224c0 2.448 3.264 3.264 4.352 1.088l23.12-42.976c.272-.816 1.088-1.36 1.904-1.36h46.784c1.632 0 2.72 2.176 1.904 3.536l-40.528 67.184a3.774 3.774 0 0 0 0 2.448Zm93.682-118.32c1.361 0 2.448 1.088 2.448 2.176v184.688c0 1.088-1.087 2.176-2.448 2.176h-42.432c-1.36 0-2.176-1.088-2.176-2.176V106.501c0-1.088.816-2.176 2.176-2.176h42.432Zm85.91 42.976c42.16 0 76.432 33.728 76.432 75.344 0 41.344-34.272 75.344-76.432 75.344-42.16 0-76.16-34-76.16-75.344 0-41.616 34-75.344 76.16-75.344Zm0 108.256c18.496 0 33.456-14.96 33.456-32.912 0-18.224-14.96-32.912-33.456-32.912-18.224 0-33.184 14.688-33.184 32.912 0 17.952 14.96 32.912 33.184 32.912Zm246.646-105.536c1.36 0 2.18 1.088 2.18 2.176v127.568c0 49.504-26.66 76.704-74.801 76.704h-3.264c-10.88 0-37.808-1.36-68.544-29.376-1.088-1.088-1.088-2.72.272-3.536l29.376-22.848c1.088-.816 2.176-.544 2.992.272 6.528 6.528 20.672 18.224 39.168 17.136 11.971-.816 21.761-5.44 26.931-12.512 3.26-4.896 4.35-10.608 3.26-16.864-.27-.816-1.09-1.088-1.9-.816-11.43 6.528-24.211 9.792-37.539 9.792-41.888 0-75.888-33.728-75.888-75.072s34-75.072 75.888-75.072c13.328 0 26.379 3.536 37.809 10.064.81.272 1.63-.272 1.63-1.088v-4.352c0-1.088 1.09-2.176 2.45-2.176h39.98Zm-75.069 107.168c19.309 0 32.639-15.504 32.639-34.544 0-4.08-.54-8.16-2.18-11.968-4.89-13.328-15.77-22.304-30.459-22.304-19.04 0-34.816 15.504-34.816 34.272s14.96 34 33.728 34.544h1.088Z"/></svg>