<?xml version="1.0" encoding="UTF-8"?>
<svg id="Lager_1" xmlns="http://www.w3.org/2000/svg" viewBox="0 0 313.48 190.79">
  <defs>
    <style>
      .cls-1 {
        fill: #f2f2f2;
      }
    </style>
  </defs>
  <g>
    <path class="cls-1" d="M69.09,83.41c5.39-2.31,8.09-6.98,8.09-14,0-11.81-3.99-20.23-11.99-25.25-2.18-1.37-4.58-2.4-7.18-3.09.29-.21.6-.4.88-.62,1.18-.99,2.21-2.08,3.12-3.25.22-.12.45-.22.66-.34,2.72-1.44,4.95-3.37,6.71-5.8,1.76-2.43,2.64-5.45,2.64-9.03,0-13.96-7.27-20.94-21.81-20.94-.06,0-.11,0-.16,0C46.78.37,43.12,0,39.05,0,35.91,0,32.43.22,28.58.67c-3.85.45-6.22.79-7.11,1.04-.98.24-1.47.61-1.47,1.1,0,.24.04.45.13.61.27,1.22.4,3.25.4,6.09,0,1.63-.05,2.76-.13,3.41-.09.89-.18,3.03-.27,6.4-.09,3.37-.13,5.91-.13,7.61l-.4,14.86c-.27,2.52-.4,5.32-.4,8.41v5.85l-.13,27.05c0,1.46.27,2.6.8,3.41.54.81,1.52,1.22,2.95,1.22l2.42-.04c.24.02.49.04.77.04.95,0,2.28-.04,3.96-.11l1.03-.02,13.01-.24c4.56,0,8.92-.23,13.08-.67,1.23-.13,2.46-.36,3.68-.66,2.84-.58,5.61-1.45,8.32-2.61ZM43.98,10.41c10.63,1.6,15.94,5.66,15.94,12.21,0,6.06-3.8,9.1-11.39,9.1-1.68,0-3.88.08-6.59.24l-3.95.12c-.37,0-.84-.01-1.35-.03v-7.67c0-2.84.09-7.19.27-13.04l.05-1.58c2.51.09,4.86.31,7.02.66ZM36.5,77.49l-.27-7.19.13-3.17c.09-.49.13-1.3.13-2.44l-.27-6.58-.27-7.8c0-.65.01-1.19.03-1.63,1.46.09,3.07.2,4.87.32,5.27.36,8.55.62,9.83.78,1.36.16,3.08.82,5.15,1.97,2.08,1.16,3.97,3.01,5.69,5.57,1.72,2.55,2.58,5.9,2.58,10.05,0,7.82-5.15,11.73-15.46,11.73-2,0-4.91-.16-8.75-.48-1.3-.14-2.41-.25-3.37-.33l-.04-.81Z"/>
    <path class="cls-1" d="M113.46,156.01c-.38-1.18-.7-1.98-.95-2.4-.84-2.11-1.5-3.5-1.96-4.17-.46-.67-.99-1.01-1.58-1.01-3.29,1.6-5.67,2.65-7.15,3.16-1.48.51-3.57.76-6.27.76-8.1,0-12.53-4.09-13.29-12.26,2.78-.17,5.32-.36,7.59-.57s4.22-.4,5.82-.57c10.04-.93,16.45-1.39,19.24-1.39.84-.17,1.27-.55,1.27-1.14,0-6.91-.57-13.33-1.71-19.27-1.14-5.94-3.67-11.14-7.59-15.61-3.92-4.47-9.77-6.7-17.53-6.7-4.13,0-8.25,1.14-12.34,3.41-4.09,2.28-7.57,6.26-10.44,11.94s-4.3,13.25-4.3,22.68,2.11,18.94,6.33,27.49c4.22,8.55,12.66,12.83,25.31,12.83,4.72,0,9.05-.69,12.97-2.08,3.92-1.39,6.77-2.97,8.54-4.74.76-.59,1.22-1.05,1.39-1.39.08-.17-.68-2.27-2.28-6.32-.34-.59-.7-1.47-1.08-2.65ZM84.54,121.19c1.27-2.74,3.08-4.11,5.44-4.11,3.97,0,6.29,4.8,6.96,14.41l-14.68,1.26c.25-4.97,1.01-8.82,2.28-11.56Z"/>
    <path class="cls-1" d="M226.92,80.19c0,2.11.04,3.61.13,4.5,0,.81.04,1.36.13,1.64.08.28.39.43.9.43l.77-.12,4.87-.12c9.23-.24,14.36-.37,15.39-.37l13.08.12c2.65.08,5.81.12,9.49.12.68,0,1.58.02,2.69.06,1.11.04,1.97-.08,2.56-.37.6-.28.9-1.07.9-2.37l.13-8.52.13-2.43c0-.81-.17-1.44-.51-1.89-.34-.44-1.03-.67-2.05-.67l-5.39.12-8.85-.12c-1.8-.08-4.23-.12-7.31-.12l-15.13.12-3.59.12c-.34.08-.81.12-1.41.12v-12.17c.08.08.34.12.77.12.17.08.73.12,1.67.12.6,0,2.31-.16,5.13-.49,2.82-.32,6.16-.49,10-.49,3.59,0,6.43.04,8.53.12,2.09.08,3.53.12,4.3.12.34,0,.75.06,1.22.18.47.12.83.18,1.09.18.43,0,.73-.14.9-.43.17-.28.26-.79.26-1.52l-.13-6.45c0-.97.04-1.76.13-2.37.08-.61.13-1.07.13-1.4,0-.97-.56-1.46-1.67-1.46-.6,0-1.5-.06-2.69-.18-1.2-.12-2.39-.18-3.59-.18-.85,0-2.65.08-5.39.24-3.59.16-6.33.24-8.21.24-4.53,0-7.53-.04-8.98-.12-1.63,0-2.78-.04-3.46-.12-.09-.89-.13-2.19-.13-3.9v-7.18c0-2.03.08-4.66.26-7.91.08-1.05.13-2.31.13-3.77,0-1.05.04-1.72.13-2.01.08-.28.47-.43,1.15-.43l6.8.12c1.97,0,4.23-.08,6.8-.24.77-.08,1.92-.12,3.46-.12,2.14,0,3.76.04,4.87.12l4.87.12c6.16,0,9.88.12,11.16.37.34.08.81.2,1.41.37.6.16,1.07.24,1.41.24,1.11,0,1.71-.61,1.8-1.83.26-1.38.39-2.88.39-4.5s-.09-3.37-.26-5.48c-.17-1.78-.26-3.04-.26-3.77,0-1.3-.17-2.19-.51-2.68-.34-.49-1.07-.73-2.18-.73l-4.62-.12c-2.91-.24-6.11-.36-9.62-.36-1.54,0-4.62.16-9.23.49-3.85.41-7.18.61-10,.61-2.48,0-4.57-.06-6.28-.18-1.71-.12-2.95-.18-3.72-.18l-1.92-.12c-.77,0-1.37.18-1.8.55-.43.37-.64,1.08-.64,2.13-.26,6.82-.39,12.78-.39,17.89,0,2.27.08,4.79.26,7.55.26,2.43.39,5.76.39,9.98,0,3.41-.17,6.98-.51,10.71,0,.73-.06,1.87-.19,3.41-.13,1.54-.19,3.12-.19,4.75v16.67c0,1.3.04,2.33.13,3.1.08.77.13,1.48.13,2.13Z"/>
    <path class="cls-1" d="M28.22,95.22c-5.65,0-10.72,1.31-15.19,3.92l-.13-13.4-.13-8.21c0-.59-.34-.89-1.01-.89-.42,0-.82.04-1.2.13-.38.09-.74.13-1.08.13l-7.72.13c-.67,0-1.12.13-1.33.38-.21.25-.32.63-.32,1.14,0,.25-.02.74-.06,1.45s-.06,1.92-.06,3.6l.51,14.66c.42,8.17.63,13.78.63,16.81v6.83c0,1.85-.04,3.33-.13,4.42l-.25,32.86-.25,5.31-.25,4.68c0,.59.13.99.38,1.2.25.21.59.32,1.01.32h.51c.34,0,1.03-.04,2.09-.13,1.05-.08,2.3-.13,3.73-.13,1.01,0,1.86.02,2.53.06.67.04,1.01.11,1.01.19.51,0,.82-.13.95-.38.13-.25.19-.67.19-1.26v-1.64c4.3,2.95,9.49,4.42,15.57,4.42,7.26,0,12.78-2.49,16.58-7.46,3.8-4.97,6.29-10.38,7.47-16.24,1.18-5.86,1.77-10.97,1.77-15.36,0-10.87-2.09-19.84-6.27-26.92-4.18-7.08-10.69-10.62-19.55-10.62ZM40.5,152.22c-3.21,4.46-7.47,6.7-12.78,6.7-3.46,0-6.43-.84-8.92-2.53s-4.49-3.96-6.01-6.82v-16.68c0-2.19.04-4.04.13-5.56.08-1.68.13-4.34.13-7.96v-.51c1.86-2.27,4.24-4.04,7.15-5.31,2.91-1.26,5.84-1.9,8.8-1.9,4.39,0,8.21,1.62,11.45,4.87,3.25,3.24,4.87,8.66,4.87,16.24,0,8.51-1.6,15-4.81,19.46Z"/>
    <path class="cls-1" d="M89.05,47.72c0-.21,0-.42,0-.64,0,.27,0,.47,0,.64Z"/>
    <path class="cls-1" d="M170.22,105.08c-.25-2.95-.8-5.48-1.65-7.58-.17-.42-.36-.95-.57-1.58-.21-.63-.4-.99-.57-1.07-.17-.08-.51-.13-1.01-.13-2.02,0-4.96.65-8.8,1.96-3.84,1.31-7.19,2.88-10.06,4.74l-.25-3.54c0-.17-.11-.4-.32-.69-.21-.3-.44-.44-.7-.44-.34,0-1.33.04-2.97.13s-3.31.13-5,.13c-2.19,0-4.01-.04-5.44-.13-1.43-.08-2.36-.13-2.79-.13-.42.08-.63.59-.63,1.52l-.13,13.02-.76,22.87c0,.51-.15,2.99-.44,7.46-.3,4.47-.44,9.1-.44,13.9s-.02,8.05-.06,9.98c-.04,1.94-.06,3.08-.06,3.41,0,1.01.63,1.52,1.9,1.52l9.74-.13c2.02,0,3.65.08,4.87.25,1.22.17,1.88.25,1.96.25,1.35,0,2.03-.29,2.03-.88.34-1.26.51-3.75.51-7.46,0-9.6-.08-17.19-.25-22.75l-.13-10.74c-.08-.09-.13-1.52-.13-4.3l-.13-5.06,5.57-1.26c2.36-.67,5.19-1.18,8.48-1.52,2.62-.34,4.6-.7,5.95-1.08,1.35-.38,2.36-1.07,3.04-2.09.08-.08.13-.46.13-1.14,0-1.1-.08-2.02-.25-2.78-.34-1.77-.55-3.33-.63-4.68Z"/>
    <path class="cls-1" d="M222.74,105.08c-.25-2.95-.8-5.48-1.64-7.58-.17-.42-.36-.95-.57-1.58-.21-.63-.4-.99-.57-1.07s-.51-.13-1.01-.13c-2.03,0-4.96.65-8.8,1.96-3.84,1.31-7.19,2.88-10.06,4.74l-.25-3.54c0-.17-.1-.4-.32-.69-.21-.3-.44-.44-.7-.44-.34,0-1.33.04-2.97.13-1.65.08-3.31.13-5,.13-2.19,0-4.01-.04-5.44-.13-1.43-.08-2.36-.13-2.78-.13-.42.08-.63.59-.63,1.52l-.13,13.02-.76,22.87c0,.51-.15,2.99-.44,7.46-.3,4.47-.44,9.1-.44,13.9s-.02,8.05-.06,9.98c-.04,1.94-.06,3.08-.06,3.41,0,1.01.63,1.52,1.9,1.52l9.74-.13c2.03,0,3.65.08,4.87.25,1.22.17,1.88.25,1.96.25,1.35,0,2.03-.29,2.03-.88.34-1.26.51-3.75.51-7.46,0-9.6-.08-17.19-.25-22.75l-.13-10.74c-.08-.09-.13-1.52-.13-4.3l-.13-5.06,5.57-1.26c2.36-.67,5.19-1.18,8.48-1.52,2.62-.34,4.6-.7,5.95-1.08,1.35-.38,2.36-1.07,3.04-2.09.08-.08.13-.46.13-1.14,0-1.1-.08-2.02-.25-2.78-.34-1.77-.55-3.33-.63-4.68Z"/>
    <path class="cls-1" d="M283.87,96.74c-1.94-.17-6.58-.25-13.92-.25-.25,0-.72-.02-1.39-.06-.68-.04-1.25.13-1.71.51-.46.38-.78,1.37-.95,2.97-.17,1.6-.7,4.04-1.58,7.33-.89,3.29-1.45,5.43-1.71,6.44-.93,2.95-1.65,5.52-2.15,7.71-.17.67-.65,2.44-1.46,5.31-.8,2.86-1.29,5.05-1.46,6.57l-1.39,8.09h-.76l-1.65-9.61-3.04-17.57c-2.19-10.28-3.29-15.17-3.29-14.66-.34-1.18-.72-1.98-1.14-2.4-.42-.42-1.31-.59-2.66-.51l-6.71.25-5.32.13c-.68,0-1.33-.04-1.96-.13s-1.2-.13-1.71-.13c-.84,0-1.27.25-1.27.76,0,.08.08.38.25.89.93,3.88,2.3,9.46,4.11,16.74,1.81,7.29,3.4,13.46,4.75,18.51l9.87,32.86-3.42,12.39c-.34.84-.59,1.56-.76,2.15-.17.59-.34,1.05-.51,1.39l-1.77,4.93c0,.08-.1.38-.32.88-.21.51-.32,1.01-.32,1.52,0,.42.09.67.25.76.09.08.59.13,1.52.13,1.1,0,2.51-.06,4.24-.19,1.73-.13,2.76-.19,3.1-.19,1.6,0,3.25.08,4.93.25,2.28.25,4.05.34,5.32.25,1.27,0,1.94-.38,2.03-1.14.08-.25.48-1.52,1.2-3.79.72-2.27,1.2-4.09,1.46-5.43l2.79-10.62c1.18-4.3,2.15-8.05,2.91-11.25.68-2.36,1.27-4.8,1.77-7.33.25-1.18.89-3.9,1.9-8.15,1.01-4.26,1.94-7.52,2.78-9.79,2.02-5.22,4.51-13.44,7.47-24.64l1.27-3.79c.25-.76.61-1.73,1.08-2.91.46-1.18.82-2.02,1.08-2.53.17-.84.25-1.35.25-1.52,0-.59-.67-.97-2.02-1.14Z"/>
    <path class="cls-1" d="M98.09,10.29c-.4,11.17-.6,17.23-.6,18.19l-.12,17.11c0,1.52.04,2.83.12,3.95l.12,7.18c0,1.67-.04,2.71-.12,3.11-.08.48-.1.92-.06,1.32.04.4.06.68.06.84,0,.32.04.52.12.6l2.88.24c2.56.16,4.67.2,6.35.12l22.17-.24,12.58.36,5.63.12c.88.08,1.32.32,1.32.72,0,.16-.04.36-.12.6-.08.24-.12.48-.12.72v5.5c0,1.44.24,4.47.72,9.1l.48,5.03.12.6c0,.4-.2.66-.6.78-.4.12-1.12.18-2.16.18l-8.75-.12-14.86-.24c-2,0-4.79.12-8.39.36-1.6.08-3.38.16-5.33.24-1.96.08-3.89.12-5.81.12l-2.04-.12c-.48-.08-1.4-.12-2.76-.12l-5.39.12c-.96.08-2.2.12-3.72.12-1.04,0-1.66-.14-1.86-.42-.2-.28-.28-.7-.24-1.26.04-.56.06-1.04.06-1.44,0-1.75.12-4.79.36-9.1l.36-12.33-.24-5.62c-.08-1.12-.16-2.45-.24-4.01-.08-1.56-.12-3.17-.12-4.85,0,2.71.24-.02.72-8.2.48-8.18.72-13.22.72-15.14l-.12-13.52-.24-7.66v-.12c0-.64.44-.96,1.32-.96l1.68.12c.4,0,.92.02,1.56.06.64.04,1.64.06,3,.06h1.08c.48,0,.72.32.72.96l-.24,6.94Z"/>
    <path class="cls-1" d="M180.55,50.5c0,1.76.1,3.27.3,4.55.2,1.28.8,2.49,1.8,3.65,1,1.16,2.62,1.74,4.85,1.74,3.12,0,5.23-1.18,6.35-3.53,1.12-2.35,1.68-4.93,1.68-7.72l.12-5.98c.24-8.86.36-13.8.36-14.84,0-2.23-.04-3.75-.12-4.55,0-2.79-.16-7.06-.48-12.81l-.24-6.58c0-1.44.2-2.43.6-2.99.4-.56,1.16-.84,2.28-.84h15.22l1.8-.12c.8,0,1.46.24,1.98.72.52.48.86,1.44,1.02,2.87.16,1.36.24,6.06.24,14.12l-.12,25.73c0,4.47-.72,9.83-2.16,16.1-1.44,6.26-4.43,12.07-8.99,17.41-4.55,5.35-11.07,8.02-19.54,8.02-19.02,0-29.24-9.1-30.68-27.28-.08-.8-.12-2.39-.12-4.79s.08-6.82.24-13.04c.24-7.18.32-12.53.24-16.04,0-4.79-.08-9.81-.24-15.08-.08-1.52-.12-3.07-.12-4.67,0-.32-.02-.92-.06-1.79-.04-.88.12-1.52.48-1.92.36-.4,1.02-.6,1.98-.6l6.95.12c1.6,0,2.76-.04,3.48-.12,1.76-.16,3.2-.24,4.31-.24l4.79.12c.72,0,1.18.18,1.38.54.2.36.34,1.02.42,1.97v47.87Z"/>
  </g>
  <path class="cls-1" d="M313.15.47c-.25,0-1.57.45-2.12,1.34-.56.89-1.09,1.86-1.6,2.89-.32.56-.95,1.8-1.88,3.71l-1.79,3.59-2.59,5.19c-.35.69-.91,1.8-1.68,3.31l-.84-1.88-.6-1.44c-.29-.64-.52-1.17-.68-1.6-.27-.82-.71-1.95-1.34-3.37-.62-1.42-1.12-2.45-1.5-3.09-.45-.96-.93-2.08-1.42-3.35-.49-1.28-.8-2.27-.94-2.99-.05-.21-.12-.51-.2-.9-.08-.39-.17-.73-.28-1.04-.11-.31-.28-.5-.52-.58-.24-.05-.61-.08-1.12-.08-.43,0-.76.01-1,.04-.24.03-.44.01-.6-.04-.16-.05-.28-.08-.36-.08-.11,0-.2.04-.28.12-.13.13-.2.67-.2,1.6l.04,2.16-.08,7.5c0,.77-.07,2.12-.2,4.03-.03.64-.07,1.36-.12,2.18s-.08,1.59-.08,2.33l.08,4.91c.03.8.04,1.64.04,2.51-.03.56,0,.92.06,1.1.07.17.3.26.7.26.21,0,.56-.03,1.04-.08l.88-.04c.11,0,.25,0,.44.02.19.01.35,0,.48-.06.13-.05.2-.2.2-.44l.04-6.23.08-7.86.08-2.71.08-1.76c.16.51.38,1.09.68,1.76.45,1.25.81,2.14,1.08,2.67.03.08.52,1.04,1.48,2.87,1.22,2.21,1.91,3.55,2.07,4.03.24.72.56,1.55.96,2.49.4.94.69,1.56.88,1.86.05.08.16.25.32.52.16.27.28.4.36.4.11,0,.51-.81,1.2-2.43.4-.88.96-2.07,1.7-3.57.73-1.5,1.34-2.73,1.81-3.69.43-.82.93-1.83,1.52-3.01.58-1.18,1.1-2.22,1.56-3.09l.4-.8c.24-.53.49-1.02.76-1.48.13-.29.29-.57.48-.84l-.08,2.87-.04,1.44c-.05,1.25-.07,2-.04,2.23,0,.93-.03,2.16-.1,3.67-.07,1.52-.13,2.55-.18,3.11-.05.48-.08,2.08-.08,4.79v2.35c0,.27.02.45.06.56.04.11.11.17.22.2.19,0,.37-.01.54-.04.17-.03,1.21-.04,1.35-.04h.08c.16.05.25-.08.25-.4v-.2l-.04-3.87c0-1.36.03-2.38.08-3.07.05-.58.12-1.77.19-3.55.07-1.78.1-3.3.1-4.55,0-5.67.05-8.86.16-9.58l.17-1c.14-.53.21-.96.21-1.28,0-.35-.11-.52-.33-.52Z"/>
  <path class="cls-1" d="M309.63,62.01c-.41-1.04-.71-1.9-.9-2.59-.16-.58-.71-2.29-1.63-5.11-.21-.45-.69-1.73-1.44-3.83l-.72-1.88-.76-2.2c-.85-2.39-1.29-3.7-1.32-3.91l-.32-1.12c-.53-2.02-.9-3.29-1.12-3.79-.05-.16-.15-.41-.28-.76-.13-.35-.27-.64-.4-.88-.13-.24-.27-.36-.4-.36-.11,0-.2.02-.3.05-.09-.03-.19-.05-.3-.05-.13,0-.27.12-.4.36-.13.24-.27.53-.4.88-.13.35-.23.6-.28.76-.21.51-.59,1.77-1.12,3.79l-.32,1.12c-.03.21-.46,1.52-1.32,3.91l-.76,2.2-.72,1.88c-.74,2.1-1.22,3.38-1.44,3.83-.93,2.82-1.48,4.52-1.63,5.11-.19.69-.49,1.56-.9,2.59s-.64,1.62-.7,1.76c-.08.19-.12.32-.12.4,0,.11.15.16.44.16h2.43c.11,0,.19,0,.24-.02.05-.01.09-.07.12-.16.03-.09.05-.15.08-.18.11-.48.2-.82.28-1.04.05-.19.12-.43.2-.72.08-.29.14-.48.2-.56.19-.35.3-.78.36-1.32.19-.72.32-1.3.4-1.76.04-.19.08-.36.11-.53,0,0,0-.02.01-.03.24-.5.45-1.08.64-1.72l.36-1.16c.11-.24.19-.39.26-.48h2.25c.86,0,1.53,0,2.02,0,.49,0,1.16,0,2.02,0h2.25c.06.09.15.23.26.48l.36,1.16c.19.64.4,1.21.64,1.72,0,0,0,.02.01.03.03.17.07.34.11.53.08.45.21,1.04.4,1.76.05.53.17.97.36,1.32.05.08.12.27.2.56.08.29.15.53.2.72.08.21.17.56.28,1.04.03.03.05.09.08.18.03.09.07.15.12.16.05.01.13.02.24.02h2.43c.29,0,.44-.05.44-.16,0-.08-.04-.21-.12-.4-.05-.13-.29-.72-.7-1.76ZM299.4,51.87l-2.16.04c-.35,0-.52-.09-.52-.28,0-.13.09-.43.28-.88.16-.4.4-1.14.72-2.23.24-.88.48-1.64.72-2.27.27-.8.55-1.74.86-2.83.3-1.09.48-1.8.54-2.12.08-.28.15-.52.22-.74.07.22.14.46.22.74.05.32.23,1.02.54,2.12.31,1.09.59,2.04.86,2.83.24.64.48,1.4.72,2.27.32,1.09.56,1.84.72,2.23.19.45.28.75.28.88,0,.19-.17.28-.52.28l-2.16-.04c-.25,0-.46,0-.66.02-.2,0-.41-.02-.66-.02Z"/>
  <path class="cls-1" d="M309.05,72.34c-.43-.05-.93-.07-1.52-.06-.59.01-.92.02-1,.02-.05,0-.19,0-.4-.02-.21-.01-.42.05-.62.18-.2.13-.37.47-.5,1-.16.75-.39,1.59-.7,2.53-.3.94-.56,1.63-.78,2.06-.11.19-.27.57-.48,1.16l-.4,1.04-.4,1.04-.44,1.2c-.21.56-.4,1.13-.56,1.72l-.32,1-.64-1.92c-.4-1.22-.77-2.23-1.12-3.03-.24-.53-.56-1.48-.96-2.83l-.28-.92c-.43-1.28-.77-2.38-1.04-3.31-.03-.11-.04-.23-.04-.36s-.04-.24-.1-.32c-.07-.08-.21-.13-.42-.16-.21-.03-.76-.04-1.64-.04-.24-.03-.56-.04-.96-.04-.32,0-.53.01-.64.04-.4.03-.7.07-.9.14-.2.07-.3.19-.3.38,0,.13.09.41.28.84.21.43.38.85.52,1.28.37,1.12.87,2.59,1.5,4.43.62,1.84,1.15,3.34,1.58,4.51.16.48.33,1.02.52,1.64.27.9.48,1.56.64,1.96.16.29.32.71.48,1.26.16.55.27.9.32,1.06.19.69.31,1.08.36,1.16.05.13.07.27.06.42-.01.15-.07.33-.18.56-.11.23-.19.41-.24.54l-.32.8c-.45,1.22-.71,1.94-.76,2.16-.03.05-.35.94-.96,2.67l-.44,1.2c-.03.08-.06.15-.1.22-.04.07-.06.14-.06.22,0,.16.16.24.48.24l1.48-.04c.9,0,1.44-.01,1.6-.04h1.08c.29.03.5-.24.64-.8.05-.21.14-.67.26-1.38.12-.71.23-1.22.34-1.54.08-.35.6-1.66,1.56-3.95,1.12-2.77,1.84-4.62,2.16-5.55.48-1.28,1.06-2.79,1.73-4.55.68-1.76,1.26-3.22,1.74-4.39.19-.43.6-1.58,1.24-3.47.08-.24.15-.46.22-.66.07-.2.12-.37.18-.5.05-.21.08-.33.08-.36,0-.19-.28-.32-.84-.4Z"/>
  <path class="cls-1" d="M307.38,124.28c-1.64-1.32-3.23-2.25-4.77-2.81.82-.29,1.58-.73,2.27-1.32,1.54-1.44,2.31-3.43,2.31-5.99,0-2.82-.74-4.74-2.21-5.75-1.48-1.01-3.48-1.52-6.01-1.52-.93,0-1.97.07-3.11.22-1.14.15-1.85.26-2.12.34-.29.08-.44.2-.44.36,0,.08.01.15.04.2.08.4.12,1.06.12,2,0,.53-.01.91-.04,1.12-.03.29-.05.99-.08,2.1-.03,1.1-.04,1.94-.04,2.49l-.12,4.87c-.08.82-.12,1.74-.12,2.75v1.92l-.04,8.86c0,.48.08.85.24,1.12s.45.4.88.4l2.43-.04,3.87-.08c1.36,0,2.65-.07,3.89-.22,1.24-.15,2.46-.61,3.67-1.4,1.21-.78,1.82-2.03,1.82-3.73,0-2.61-.82-4.57-2.46-5.89ZM298.22,120.13c.03-.2.04-.43.04-.7v-4.55c0-.93.03-2.35.08-4.27l.08-2.55c1.54,0,2.81.13,3.81.38,1,.25,1.83.84,2.49,1.78.67.93,1,2.36,1,4.27,0,1.81-.52,3.19-1.56,4.15-1.04.96-2.12,1.58-3.23,1.88s-1.94.44-2.47.44c-.13,0-.21-.02-.24-.06-.03-.04-.04-.14-.04-.3,0-.11.01-.26.04-.46ZM305.36,133.5c-1.3.84-3.26,1.26-5.87,1.26-.11,0-.27,0-.5.02-.23.01-.4-.01-.52-.08-.12-.07-.18-.26-.18-.58l-.08-1.84-.08-2.35.04-1.04c.03-.16.04-.43.04-.8l-.08-2.15-.08-2.55c0-.48.01-.78.04-.92,0-.13.01-.24.04-.32,1.7-.03,3.23.21,4.59.72,3.06,1.28,4.59,3.7,4.59,7.26,0,1.41-.65,2.53-1.96,3.37Z"/>
  <path class="cls-1" d="M295.09,150.84c.03-.34.04-.76.04-1.24,0-.34.01-.56.04-.66.03-.09.15-.14.36-.14l2.12.04c.61,0,1.32-.03,2.12-.08.24-.03.6-.04,1.08-.04.66,0,1.17.01,1.52.04l1.52.04c1.92,0,3.07.04,3.47.12.11.03.25.07.44.12.19.05.33.08.44.08.35,0,.53-.2.56-.6.08-.45.12-.94.12-1.48,0-.5-.03-1.1-.08-1.8-.05-.58-.08-1-.08-1.24,0-.42-.05-.72-.16-.88-.11-.16-.33-.24-.68-.24l-1.44-.04c-.91-.08-1.9-.12-2.99-.12-.48,0-1.44.05-2.87.16-1.2.13-2.23.2-3.11.2-.77,0-1.42-.02-1.96-.06-.53-.04-.92-.06-1.16-.06l-.6-.04c-.24,0-.43.06-.56.18-.13.12-.2.35-.2.7-.08,2.23-.12,4.19-.12,5.87,0,.75.03,1.57.08,2.47.08.8.12,1.89.12,3.27,0,1.12-.05,2.29-.16,3.51,0,.24-.02.61-.06,1.12-.04.51-.06,1.02-.06,1.56v5.47c0,.43.01.76.04,1.02.03.25.04.49.04.7,0,.69.01,1.18.04,1.48,0,.27.01.45.04.54.03.09.12.14.28.14l.24-.04,1.52-.04c2.88-.08,4.47-.12,4.79-.12l4.07.04c.83.03,1.81.04,2.95.04.21,0,.49,0,.84.02.34.01.61-.03.8-.12.19-.09.28-.35.28-.78l.04-2.79.04-.8c0-.27-.05-.47-.16-.62-.11-.15-.32-.22-.64-.22l-1.68.04-2.75-.04c-.56-.03-1.32-.04-2.27-.04l-4.71.04-1.12.04c-.11.03-.25.04-.44.04v-3.99s.11.04.24.04c.05.03.23.04.52.04.19,0,.72-.05,1.6-.16.88-.11,1.92-.16,3.11-.16,1.12,0,2,.01,2.65.04s1.1.04,1.34.04c.11,0,.23.02.38.06s.26.06.34.06c.13,0,.23-.05.28-.14.05-.09.08-.26.08-.5l-.04-2.12c0-.32.01-.58.04-.78.03-.2.04-.35.04-.46,0-.32-.17-.48-.52-.48-.19,0-.47-.02-.84-.06-.37-.04-.75-.06-1.12-.06-.27,0-.83.03-1.68.08-1.12.05-1.97.08-2.55.08-1.41,0-2.34-.01-2.79-.04-.5,0-.86-.01-1.08-.04-.03-.29-.04-.72-.04-1.28v-2.35c0-.67.03-1.53.08-2.59Z"/>
</svg>